<?xml version="1.0" encoding="UTF-8" standalone="no"?>
<svg width="60px" height="60px" viewBox="0 0 60 60" version="1.1" xmlns="http://www.w3.org/2000/svg" xmlns:xlink="http://www.w3.org/1999/xlink" xmlns:sketch="http://www.bohemiancoding.com/sketch/ns">
    <!-- Generator: Sketch 3.3.3 (12081) - http://www.bohemiancoding.com/sketch -->
    <title>Datawork</title>
    <desc>Created with Sketch.</desc>
    <defs>
        <path d="M13,16 C14.657,16 16,14.657 16,13 C16,11.343 14.657,10 13,10 C11.343,10 10,11.343 10,13 C10,14.657 11.343,16 13,16 L13,16 Z M7.485,21.343 L6.634,22.195 C5.854,22.974 4.594,22.979 3.808,22.192 C3.027,21.411 3.026,20.145 3.805,19.366 L4.657,18.515 C3.962,17.465 3.459,16.277 3.2,15 L1.997,15 C0.894,15 0,14.112 0,13 C0,11.895 0.895,11 1.997,11 L3.2,11 C3.459,9.723 3.962,8.535 4.657,7.485 L3.805,6.634 C3.026,5.854 3.021,4.594 3.808,3.808 C4.589,3.027 5.855,3.026 6.634,3.805 L7.485,4.657 C8.535,3.962 9.723,3.459 11,3.2 L11,1.997 C11,0.894 11.888,0 13,0 C14.105,0 15,0.895 15,1.997 L15,3.2 C16.277,3.459 17.465,3.962 18.515,4.657 L19.366,3.805 C20.146,3.026 21.406,3.021 22.192,3.808 C22.973,4.589 22.974,5.855 22.195,6.634 L21.343,7.485 C22.038,8.535 22.541,9.723 22.8,11 L24.003,11 C25.106,11 26,11.888 26,13 C26,14.105 25.105,15 24.003,15 L22.8,15 C22.541,16.277 22.038,17.465 21.343,18.515 L22.195,19.366 C22.974,20.146 22.979,21.406 22.192,22.192 C21.411,22.973 20.145,22.974 19.366,22.195 L18.515,21.343 C17.465,22.038 16.277,22.541 15,22.8 L15,24.003 C15,25.106 14.112,26 13,26 C11.895,26 11,25.105 11,24.003 L11,22.8 C9.723,22.541 8.535,22.038 7.485,21.343 L7.485,21.343 Z" id="path-1"></path>
        <path d="M14.334,16.918 C16.026,16.496 17.055,14.783 16.633,13.092 C16.211,11.401 14.498,10.372 12.807,10.793 C11.116,11.215 10.087,12.928 10.509,14.619 C10.93,16.31 12.643,17.34 14.334,16.918 M10.065,23.776 L9.413,24.861 C8.815,25.856 7.53,26.181 6.527,25.578 C5.531,24.98 5.209,23.688 5.806,22.694 L6.458,21.608 C5.481,20.714 4.666,19.629 4.077,18.391 L2.849,18.697 C1.723,18.978 0.584,18.3 0.301,17.164 C0.02,16.037 0.706,14.895 1.831,14.614 L3.058,14.308 C2.998,12.939 3.208,11.598 3.651,10.35 L2.565,9.698 C1.571,9.1 1.245,7.815 1.848,6.812 C2.447,5.816 3.739,5.493 4.733,6.091 L5.818,6.743 C6.713,5.766 7.798,4.951 9.035,4.361 L8.729,3.133 C8.448,2.008 9.127,0.869 10.262,0.586 C11.39,0.305 12.532,0.99 12.812,2.115 L13.118,3.343 C14.487,3.283 15.828,3.493 17.077,3.936 L17.729,2.85 C18.327,1.856 19.612,1.53 20.615,2.133 C21.61,2.732 21.933,4.024 21.336,5.017 L20.684,6.103 C21.66,6.998 22.476,8.083 23.065,9.32 L24.293,9.014 C25.419,8.733 26.557,9.412 26.841,10.547 C27.122,11.675 26.436,12.816 25.311,13.097 L24.083,13.403 C24.143,14.772 23.933,16.113 23.491,17.362 L24.576,18.014 C25.571,18.611 25.896,19.896 25.293,20.899 C24.695,21.895 23.403,22.218 22.409,21.621 L21.323,20.969 C20.429,21.945 19.344,22.761 18.106,23.35 L18.413,24.578 C18.693,25.704 18.015,26.842 16.879,27.125 C15.752,27.407 14.61,26.721 14.33,25.596 L14.023,24.368 C12.654,24.428 11.313,24.218 10.065,23.776" id="path-3"></path>
        <path d="M13.577,12.969 C14.401,11.835 14.149,10.247 13.015,9.423 C11.881,8.599 10.294,8.851 9.469,9.985 C8.645,11.119 8.897,12.707 10.031,13.531 C11.165,14.355 12.753,14.103 13.577,12.969 M14.492,19.402 L14.651,20.408 C14.797,21.33 14.173,22.194 13.244,22.341 C12.321,22.488 11.454,21.858 11.308,20.937 L11.149,19.931 C10.084,19.885 9.021,19.638 8.018,19.18 L7.42,20.004 C6.871,20.759 5.819,20.929 5.058,20.376 C4.301,19.827 4.133,18.769 4.682,18.014 L5.28,17.191 C4.535,16.378 3.971,15.443 3.598,14.445 L2.592,14.605 C1.67,14.751 0.806,14.127 0.659,13.198 C0.512,12.275 1.142,11.408 2.063,11.262 L3.069,11.103 C3.115,10.038 3.362,8.975 3.82,7.972 L2.996,7.374 C2.241,6.825 2.071,5.773 2.624,5.011 C3.173,4.255 4.231,4.087 4.986,4.635 L5.809,5.234 C6.622,4.489 7.557,3.925 8.555,3.552 L8.395,2.546 C8.249,1.624 8.873,0.76 9.802,0.612 C10.726,0.466 11.592,1.096 11.738,2.017 L11.898,3.023 C12.962,3.069 14.025,3.316 15.028,3.774 L15.626,2.95 C16.175,2.195 17.227,2.025 17.989,2.578 C18.745,3.127 18.913,4.185 18.365,4.939 L17.766,5.763 C18.511,6.575 19.075,7.51 19.448,8.508 L20.454,8.349 C21.376,8.203 22.24,8.827 22.388,9.756 C22.534,10.679 21.904,11.546 20.983,11.692 L19.977,11.851 C19.931,12.916 19.684,13.979 19.226,14.982 L20.05,15.58 C20.805,16.129 20.976,17.181 20.422,17.943 C19.873,18.699 18.815,18.867 18.06,18.318 L17.237,17.72 C16.425,18.465 15.49,19.029 14.492,19.402" id="path-5"></path>
    </defs>
    <g id="colored" stroke="none" stroke-width="1" fill="none" fill-rule="evenodd" sketch:type="MSPage">
        <g id="Tech_sliced" sketch:type="MSLayerGroup" transform="translate(-480.000000, -480.000000)"></g>
        <g id="Imported-Layers" sketch:type="MSLayerGroup" transform="translate(-479.000000, -478.000000)">
            <g id="Group-514" transform="translate(481.000000, 510.000000)">
                <mask id="mask-2" sketch:name="Clip 513" fill="white">
                    <use xlink:href="#path-1"></use>
                </mask>
                <g id="Clip-513"></g>
                <path d="M0,0 L26,0 L26,26 L0,26 L0,0 Z" id="Fill-512" fill="#D8D8D8" sketch:type="MSShapeGroup" mask="url(#mask-2)"></path>
            </g>
            <path d="M494,537 C492.346,537 491,535.656 491,534.003 L491,533.586 C490.176,533.354 489.385,533.025 488.637,532.606 L488.341,532.902 C487.206,534.036 485.237,534.036 484.101,532.899 C482.931,531.73 482.93,529.828 484.099,528.659 L484.394,528.364 C483.975,527.615 483.647,526.824 483.414,526 L482.997,526 C481.345,526 480,524.654 480,523 C480,521.346 481.345,520 482.997,520 L483.414,520 C483.647,519.176 483.975,518.385 484.394,517.636 L484.099,517.34 C483.532,516.775 483.22,516.022 483.22,515.224 C483.219,514.424 483.532,513.669 484.101,513.101 C485.232,511.968 487.209,511.965 488.341,513.099 L488.637,513.394 C489.385,512.975 490.176,512.646 491,512.414 L491,511.997 C491,510.344 492.346,509 494,509 C495.654,509 497,510.344 497,511.997 L497,512.414 C497.824,512.646 498.615,512.975 499.363,513.394 L499.659,513.098 C500.792,511.965 502.763,511.964 503.899,513.101 C505.069,514.27 505.07,516.172 503.901,517.341 L503.606,517.636 C504.025,518.385 504.354,519.176 504.586,520 L505.003,520 C506.655,520 508,521.346 508,523 C508,524.654 506.655,526 505.003,526 L504.586,526 C504.354,526.824 504.025,527.615 503.606,528.364 L503.901,528.659 C504.468,529.225 504.78,529.978 504.78,530.776 C504.781,531.576 504.468,532.331 503.899,532.899 C502.769,534.032 500.792,534.034 499.659,532.901 L499.363,532.606 C498.615,533.025 497.824,533.354 497,533.586 L497,534.003 C497,535.656 495.654,537 494,537 L494,537 Z M488.485,530.343 C488.677,530.343 488.869,530.398 489.037,530.51 C490.004,531.149 491.067,531.59 492.198,531.82 C492.665,531.914 493,532.324 493,532.8 L493,534.003 C493,534.553 493.448,535 494,535 C494.56,535 495,534.562 495,534.003 L495,532.8 C495,532.324 495.335,531.914 495.802,531.82 C496.933,531.59 497.996,531.149 498.963,530.51 C499.357,530.248 499.885,530.3 500.222,530.636 L501.073,531.487 C501.45,531.865 502.108,531.862 502.485,531.485 C502.676,531.294 502.781,531.043 502.78,530.777 C502.78,530.512 502.677,530.262 502.487,530.074 L501.636,529.222 C501.3,528.885 501.246,528.359 501.509,527.962 C502.149,526.996 502.591,525.932 502.819,524.801 C502.914,524.335 503.324,524 503.8,524 L505.003,524 C505.553,524 506,523.551 506,523 C506,522.449 505.553,522 505.003,522 L503.8,522 C503.324,522 502.914,521.665 502.819,521.199 C502.591,520.068 502.149,519.004 501.509,518.038 C501.246,517.641 501.3,517.115 501.636,516.778 L502.487,515.927 C502.876,515.538 502.875,514.904 502.485,514.515 C502.104,514.134 501.451,514.134 501.074,514.512 L500.222,515.364 C499.885,515.701 499.357,515.753 498.963,515.49 C497.996,514.851 496.933,514.41 495.802,514.18 C495.335,514.086 495,513.676 495,513.2 L495,511.997 C495,511.447 494.552,511 494,511 C493.44,511 493,511.438 493,511.997 L493,513.2 C493,513.676 492.665,514.086 492.198,514.18 C491.067,514.41 490.004,514.851 489.037,515.49 C488.643,515.753 488.115,515.701 487.778,515.364 L486.927,514.513 C486.55,514.134 485.892,514.138 485.515,514.515 C485.324,514.706 485.219,514.957 485.22,515.223 C485.22,515.488 485.323,515.738 485.513,515.926 L486.363,516.779 C486.699,517.115 486.752,517.641 486.49,518.037 C485.851,519.004 485.409,520.068 485.181,521.199 C485.086,521.665 484.676,522 484.2,522 L482.997,522 C482.447,522 482,522.449 482,523 C482,523.551 482.447,524 482.997,524 L484.2,524 C484.676,524 485.086,524.335 485.181,524.801 C485.409,525.932 485.851,526.996 486.49,527.963 C486.752,528.359 486.699,528.885 486.363,529.221 L485.513,530.073 C485.124,530.462 485.125,531.096 485.515,531.485 C485.896,531.867 486.548,531.866 486.927,531.487 L487.778,530.636 C487.972,530.443 488.227,530.343 488.485,530.343 L488.485,530.343 Z M494,527 C491.794,527 490,525.206 490,523 C490,520.794 491.794,519 494,519 C496.206,519 498,520.794 498,523 C498,525.206 496.206,527 494,527 L494,527 Z M494,521 C492.898,521 492,521.897 492,523 C492,524.103 492.898,525 494,525 C495.102,525 496,524.103 496,523 C496,521.897 495.102,521 494,521 L494,521 Z" id="Fill-515" fill="#535353" sketch:type="MSShapeGroup"></path>
            <g id="Group-518" transform="translate(509.000000, 498.000000)">
                <mask id="mask-4" sketch:name="Clip 517" fill="white">
                    <use xlink:href="#path-3"></use>
                </mask>
                <g id="Clip-517"></g>
                <path d="M-9.069,0.253 L27.174,-8.784 L36.21,27.459 L-0.032,36.495 L-9.069,0.253" id="Fill-516" fill="#D8D8D8" sketch:type="MSShapeGroup" mask="url(#mask-4)"></path>
            </g>
            <path d="M525.368,526.188 C523.941,526.188 522.704,525.222 522.359,523.837 L522.244,523.374 C521.32,523.348 520.406,523.211 519.517,522.965 L519.271,523.375 C518.704,524.318 517.711,524.881 516.613,524.881 C516.052,524.881 515.498,524.727 515.012,524.435 C513.546,523.554 513.068,521.645 513.948,520.179 L514.195,519.768 C513.559,519.096 513.01,518.355 512.555,517.552 L512.091,517.667 C510.446,518.077 508.737,517.039 508.33,515.406 C508.13,514.602 508.254,513.767 508.681,513.057 C509.107,512.346 509.785,511.844 510.588,511.644 L511.053,511.528 C511.077,510.604 511.214,509.692 511.461,508.801 L511.051,508.555 C510.34,508.127 509.838,507.451 509.638,506.649 C509.437,505.846 509.562,505.01 509.99,504.296 C510.549,503.368 511.569,502.791 512.654,502.791 C513.215,502.791 513.766,502.943 514.248,503.233 L514.658,503.479 C515.33,502.843 516.071,502.294 516.874,501.839 L516.759,501.375 C516.345,499.716 517.36,498.029 519.021,497.615 C519.268,497.554 519.521,497.522 519.773,497.522 C521.199,497.522 522.437,498.489 522.782,499.872 L522.898,500.337 C523.822,500.363 524.735,500.5 525.625,500.746 L525.871,500.334 C526.437,499.392 527.431,498.83 528.528,498.83 C529.09,498.83 529.644,498.984 530.13,499.276 C531.596,500.156 532.073,502.066 531.193,503.532 L530.946,503.942 C531.583,504.614 532.132,505.355 532.588,506.159 L533.051,506.043 C534.696,505.634 536.404,506.672 536.812,508.305 C537.226,509.965 536.213,511.652 534.554,512.067 L534.089,512.183 C534.065,513.106 533.928,514.019 533.681,514.91 L534.091,515.156 C534.802,515.583 535.304,516.26 535.504,517.062 C535.705,517.865 535.579,518.701 535.149,519.415 C534.593,520.343 533.572,520.92 532.487,520.92 C531.927,520.92 531.376,520.767 530.894,520.478 L530.483,520.231 C529.812,520.867 529.07,521.417 528.267,521.872 L528.383,522.336 C528.583,523.14 528.46,523.973 528.034,524.682 C527.608,525.392 526.929,525.894 526.121,526.095 C525.874,526.157 525.621,526.188 525.368,526.188 L525.368,526.188 Z M523.023,521.368 C523.481,521.368 523.882,521.679 523.994,522.125 L524.3,523.354 C524.444,523.932 525.048,524.301 525.637,524.155 C525.926,524.083 526.168,523.904 526.319,523.653 C526.47,523.402 526.514,523.106 526.442,522.82 L526.136,521.591 C526.021,521.13 526.247,520.651 526.677,520.447 C527.778,519.922 528.758,519.197 529.586,518.293 C529.908,517.942 530.432,517.867 530.838,518.111 L531.924,518.763 C532.435,519.071 533.133,518.888 533.435,518.384 C533.59,518.128 533.635,517.831 533.563,517.546 C533.493,517.263 533.315,517.022 533.062,516.871 L531.976,516.219 C531.567,515.974 531.389,515.475 531.548,515.027 C531.958,513.873 532.138,512.668 532.084,511.447 C532.062,510.972 532.38,510.547 532.841,510.433 L534.069,510.126 C534.658,509.979 535.018,509.379 534.87,508.789 C534.725,508.207 534.121,507.833 533.535,507.984 L532.308,508.29 C531.845,508.405 531.368,508.18 531.163,507.75 C530.637,506.647 529.912,505.668 529.008,504.84 C528.657,504.519 528.581,503.995 528.826,503.587 L529.479,502.502 C529.791,501.982 529.621,501.303 529.1,500.99 C528.584,500.678 527.89,500.857 527.586,501.365 L526.934,502.451 C526.687,502.858 526.19,503.038 525.742,502.878 C524.592,502.47 523.388,502.292 522.162,502.342 C521.692,502.37 521.263,502.046 521.148,501.584 L520.842,500.356 C520.698,499.779 520.096,499.41 519.505,499.556 C518.914,499.703 518.552,500.302 518.699,500.891 L519.005,502.119 C519.121,502.58 518.894,503.059 518.465,503.264 C517.363,503.789 516.384,504.513 515.556,505.417 C515.234,505.769 514.712,505.845 514.304,505.6 L513.218,504.948 C512.705,504.639 512.007,504.822 511.705,505.327 C511.552,505.582 511.506,505.879 511.577,506.164 C511.648,506.448 511.827,506.688 512.08,506.84 L513.166,507.492 C513.574,507.737 513.753,508.236 513.594,508.685 C513.184,509.838 513.004,511.042 513.058,512.264 C513.079,512.738 512.762,513.163 512.301,513.278 L511.072,513.584 C510.787,513.656 510.547,513.833 510.396,514.086 C510.244,514.338 510.199,514.635 510.271,514.921 C510.417,515.505 511.018,515.87 511.607,515.727 L512.834,515.42 C513.301,515.306 513.774,515.531 513.979,515.96 C514.505,517.063 515.229,518.042 516.134,518.871 C516.484,519.192 516.56,519.715 516.315,520.123 L515.663,521.208 C515.351,521.729 515.521,522.407 516.042,522.72 C516.558,523.031 517.251,522.853 517.556,522.346 L518.207,521.261 C518.452,520.852 518.952,520.674 519.398,520.833 C520.549,521.241 521.751,521.422 522.979,521.369 C522.994,521.368 523.009,521.368 523.023,521.368 L523.023,521.368 Z M522.568,516.012 C522.568,516.012 522.568,516.012 522.567,516.012 C520.658,516.012 519.001,514.716 518.538,512.861 C518.269,511.784 518.437,510.667 519.009,509.715 C519.58,508.763 520.488,508.091 521.565,507.823 C521.896,507.74 522.235,507.698 522.573,507.698 C524.483,507.698 526.141,508.994 526.604,510.85 C526.872,511.927 526.705,513.044 526.133,513.996 C525.562,514.947 524.653,515.619 523.576,515.888 C523.245,515.97 522.906,516.012 522.568,516.012 L522.568,516.012 Z M522.573,509.698 C522.398,509.698 522.222,509.72 522.05,509.763 C521.49,509.903 521.019,510.251 520.723,510.745 C520.427,511.239 520.34,511.818 520.479,512.376 C520.719,513.339 521.578,514.012 522.567,514.012 L522.568,514.012 C522.743,514.012 522.92,513.99 523.092,513.947 C523.651,513.808 524.122,513.459 524.419,512.966 C524.716,512.472 524.802,511.893 524.662,511.334 C524.423,510.371 523.563,509.698 522.573,509.698 L522.573,509.698 Z" id="Fill-519" fill="#535353" sketch:type="MSShapeGroup"></path>
            <g id="Group-522" transform="translate(487.000000, 484.000000)">
                <mask id="mask-6" sketch:name="Clip 521" fill="white">
                    <use xlink:href="#path-5"></use>
                </mask>
                <g id="Clip-521"></g>
                <path d="M-10.826,15.017 L7.983,-10.872 L33.872,7.937 L15.063,33.826 L-10.826,15.017" id="Fill-520" fill="#D8D8D8" sketch:type="MSShapeGroup" mask="url(#mask-6)"></path>
            </g>
            <path d="M499.977,507.362 C498.646,507.362 497.528,506.408 497.321,505.092 L497.283,504.858 C496.63,504.773 495.989,504.619 495.368,504.399 L495.229,504.591 C494.387,505.75 492.635,506.03 491.47,505.185 C490.269,504.312 490.001,502.626 490.872,501.426 L491.012,501.234 C490.61,500.711 490.267,500.15 489.983,499.555 L489.748,499.592 C488.25,499.829 486.9,498.809 486.671,497.354 C486.439,495.887 487.442,494.505 488.906,494.273 L489.142,494.236 C489.227,493.582 489.381,492.942 489.601,492.322 L489.408,492.182 C488.827,491.76 488.444,491.137 488.332,490.429 C488.219,489.719 488.391,489.006 488.815,488.422 C489.656,487.266 491.416,486.984 492.573,487.826 L492.766,487.965 C493.288,487.564 493.85,487.22 494.445,486.937 L494.408,486.702 C494.295,485.992 494.465,485.281 494.887,484.701 C495.309,484.12 495.934,483.737 496.646,483.624 C498.137,483.385 499.494,484.407 499.726,485.859 L499.763,486.095 C500.417,486.18 501.058,486.333 501.679,486.554 L501.818,486.362 C502.658,485.205 504.414,484.922 505.576,485.769 C506.158,486.191 506.541,486.815 506.653,487.526 C506.767,488.236 506.596,488.947 506.173,489.527 L506.034,489.718 C506.435,490.241 506.779,490.802 507.063,491.398 L507.298,491.361 C508.797,491.125 510.146,492.144 510.375,493.599 C510.488,494.309 510.317,495.021 509.896,495.603 C509.473,496.184 508.85,496.566 508.14,496.679 L507.905,496.716 C507.819,497.37 507.666,498.01 507.446,498.631 L507.638,498.771 C508.22,499.193 508.602,499.816 508.714,500.524 C508.827,501.234 508.655,501.946 508.231,502.53 C507.393,503.685 505.631,503.97 504.473,503.126 L504.281,502.988 C503.759,503.389 503.197,503.732 502.602,504.016 L502.639,504.251 C502.87,505.716 501.866,507.097 500.4,507.329 C500.258,507.351 500.116,507.362 499.977,507.362 L499.977,507.362 Z M495.019,502.18 C495.158,502.18 495.3,502.209 495.434,502.27 C496.305,502.667 497.232,502.89 498.192,502.932 C498.667,502.952 499.062,503.304 499.136,503.773 L499.296,504.779 C499.354,505.147 499.693,505.414 500.088,505.353 C500.471,505.292 500.724,504.945 500.664,504.563 L500.505,503.558 C500.431,503.088 500.696,502.631 501.142,502.465 C502.042,502.128 502.856,501.629 503.562,500.983 C503.913,500.661 504.442,500.632 504.825,500.911 L505.648,501.509 C505.798,501.618 505.95,501.64 506.051,501.64 C506.276,501.64 506.481,501.536 506.612,501.354 C506.723,501.203 506.768,501.02 506.739,500.838 C506.71,500.657 506.611,500.498 506.462,500.388 L505.639,499.791 C505.254,499.511 505.119,499 505.316,498.567 C505.715,497.694 505.937,496.765 505.979,495.808 C505.999,495.332 506.352,494.937 506.821,494.863 L507.827,494.704 C508.009,494.675 508.168,494.577 508.276,494.428 C508.385,494.278 508.429,494.095 508.4,493.913 C508.341,493.538 508.009,493.274 507.61,493.336 L506.604,493.496 C506.144,493.571 505.679,493.304 505.512,492.858 C505.175,491.958 504.677,491.144 504.029,490.438 C503.708,490.088 503.678,489.56 503.957,489.175 L504.555,488.352 C504.663,488.202 504.707,488.021 504.679,487.839 C504.649,487.656 504.551,487.495 504.401,487.386 C504.093,487.164 503.653,487.237 503.437,487.537 L502.837,488.361 C502.558,488.746 502.047,488.881 501.613,488.683 C500.742,488.285 499.813,488.063 498.854,488.021 C498.379,488.001 497.984,487.648 497.91,487.179 L497.751,486.172 C497.692,485.806 497.34,485.543 496.959,485.6 C496.774,485.629 496.613,485.727 496.505,485.876 C496.398,486.024 496.354,486.206 496.383,486.388 L496.542,487.396 C496.617,487.865 496.35,488.322 495.904,488.489 C495.006,488.824 494.191,489.323 493.485,489.97 C493.135,490.292 492.606,490.323 492.222,490.042 L491.398,489.444 C491.248,489.335 491.097,489.312 490.995,489.312 C490.771,489.312 490.565,489.417 490.433,489.599 C490.323,489.75 490.278,489.933 490.307,490.115 C490.336,490.295 490.434,490.455 490.584,490.564 L491.408,491.163 C491.793,491.442 491.928,491.955 491.73,492.387 C491.332,493.257 491.109,494.185 491.068,495.145 C491.048,495.621 490.695,496.016 490.226,496.09 L489.219,496.249 C488.844,496.309 488.587,496.664 488.646,497.042 C488.705,497.415 489.042,497.679 489.436,497.617 L490.442,497.457 C490.909,497.385 491.369,497.649 491.536,498.096 C491.87,498.994 492.369,499.808 493.018,500.515 C493.339,500.865 493.369,501.394 493.089,501.778 L492.49,502.602 C492.268,502.909 492.337,503.342 492.646,503.566 C492.952,503.788 493.394,503.716 493.611,503.416 L494.21,502.592 C494.402,502.326 494.707,502.18 495.019,502.18 L495.019,502.18 Z M498.521,499.015 L498.521,499.015 C497.771,499.015 497.052,498.781 496.443,498.339 C495.679,497.784 495.176,496.963 495.028,496.03 C494.881,495.097 495.106,494.161 495.661,493.396 C496.324,492.483 497.396,491.938 498.525,491.938 C499.275,491.938 499.994,492.171 500.604,492.614 C502.182,493.76 502.532,495.977 501.387,497.556 C500.723,498.47 499.651,499.015 498.521,499.015 L498.521,499.015 Z M498.525,493.938 C498.026,493.938 497.571,494.169 497.278,494.572 C497.037,494.905 496.94,495.312 497.004,495.717 C497.067,496.123 497.286,496.479 497.619,496.721 C498.285,497.205 499.288,497.041 499.769,496.38 C500.267,495.694 500.114,494.73 499.428,494.232 C499.163,494.04 498.851,493.938 498.525,493.938 L498.525,493.938 Z" id="Fill-523" fill="#535353" sketch:type="MSShapeGroup"></path>
        </g>
    </g>
</svg>