<?xml version="1.0" encoding="UTF-8" standalone="no"?>
<svg width="60px" height="60px" viewBox="0 0 60 60" version="1.1" xmlns="http://www.w3.org/2000/svg" xmlns:xlink="http://www.w3.org/1999/xlink" xmlns:sketch="http://www.bohemiancoding.com/sketch/ns">
    <!-- Generator: Sketch 3.3.3 (12081) - http://www.bohemiancoding.com/sketch -->
    <title>Manbag</title>
    <desc>Created with Sketch.</desc>
    <defs>
        <path id="path-1" d="M0,0 L21,0 L21,5.5 C21,8.538 18.529,11 15.51,11 L5.49,11 C2.458,11 0,8.531 0,5.5 L0,0 L0,0 Z"></path>
        <path id="path-3" d="M21,11 L0,11 L0,5.5 C0,2.462 2.471,0 5.49,0 L15.51,0 C18.542,0 21,2.469 21,5.5 L21,11 L21,11 Z"></path>
    </defs>
    <g id="outlined" stroke="none" stroke-width="1" fill="none" fill-rule="evenodd" sketch:type="MSPage">
        <g id="Marketing_sliced" sketch:type="MSLayerGroup" transform="translate(-360.000000, -600.000000)"></g>
        <g id="Imported-Layers" sketch:type="MSLayerGroup" transform="translate(-358.000000, -591.000000)">
            <path d="M362,616 L415,616 L415,645 L362,645 L362,616 Z" id="Fill-563" fill="#D8D8D8" sketch:type="MSShapeGroup"></path>
            <path d="M415,646 L362,646 C361.448,646 361,645.552 361,645 L361,616 C361,615.448 361.448,615 362,615 L415,615 C415.552,615 416,615.448 416,616 L416,645 C416,645.552 415.552,646 415,646 L415,646 Z M363,644 L414,644 L414,617 L363,617 L363,644 Z" id="Fill-565" fill="#535353" sketch:type="MSShapeGroup"></path>
            <g id="Group-568" transform="translate(378.000000, 615.000000)">
                <mask id="mask-2" sketch:name="Clip 567" fill="white">
                    <use xlink:href="#path-1"></use>
                </mask>
                <g id="Clip-567"></g>
                <path d="M15.51,13 L5.49,13 C1.36,13 -2,9.636 -2,5.5 L-2,0 C-2,-1.104 -1.104,-2 0,-2 L21,-2 C22.104,-2 23,-1.104 23,0 L23,5.5 C23,9.636 19.64,13 15.51,13 L15.51,13 Z M2,2 L2,5.5 C2,7.43 3.566,9 5.49,9 L15.51,9 C17.434,9 19,7.43 19,5.5 L19,2 L2,2 L2,2 Z" id="Fill-566" fill="#535353" sketch:type="MSShapeGroup" mask="url(#mask-2)"></path>
            </g>
            <g id="Group-571" transform="translate(378.000000, 598.000000)">
                <mask id="mask-4" sketch:name="Clip 570" fill="white">
                    <use xlink:href="#path-3"></use>
                </mask>
                <g id="Clip-570"></g>
                <path d="M21,13 L0,13 C-1.104,13 -2,12.104 -2,11 L-2,5.5 C-2,1.364 1.36,-2 5.49,-2 L15.51,-2 C19.64,-2 23,1.364 23,5.5 L23,11 C23,12.104 22.104,13 21,13 L21,13 Z M2,9 L19,9 L19,5.5 C19,3.57 17.434,2 15.51,2 L5.49,2 C3.566,2 2,3.57 2,5.5 L2,9 L2,9 Z" id="Fill-569" fill="#535353" sketch:type="MSShapeGroup" mask="url(#mask-4)"></path>
            </g>
            <path d="M383,620 L394,620 L394,622 L383,622 L383,620 Z" id="Fill-572" fill="#535353" sketch:type="MSShapeGroup"></path>
            <path d="M415,617 L362,617 C361.448,617 361,616.552 361,616 L361,608 C361,607.448 361.448,607 362,607 L415,607 C415.552,607 416,607.448 416,608 L416,616 C416,616.552 415.552,617 415,617 L415,617 Z M363,615 L414,615 L414,609 L363,609 L363,615 Z" id="Fill-573" fill="#535353" sketch:type="MSShapeGroup"></path>
        </g>
    </g>
</svg>