<?xml version="1.0" encoding="UTF-8" standalone="no"?>
<svg width="60px" height="60px" viewBox="0 0 60 60" version="1.1" xmlns="http://www.w3.org/2000/svg" xmlns:xlink="http://www.w3.org/1999/xlink" xmlns:sketch="http://www.bohemiancoding.com/sketch/ns">
    <!-- Generator: Sketch 3.3.3 (12081) - http://www.bohemiancoding.com/sketch -->
    <title>Datatransfer</title>
    <desc>Created with Sketch.</desc>
    <defs>
        <path id="path-1" d="M5.032,15 C2.253,15 0,12.761 0,10 C0,7.239 2.253,5 5.032,5 L5.092,5 C5.499,2.173 7.945,0 10.903,0 C13.313,0 15.383,1.442 16.288,3.505 C17.273,2.869 18.448,2.5 19.71,2.5 C23.184,2.5 26,5.298 26,8.75 C26,12.202 23.184,15 19.71,15 C19.569,15 19.429,14.995 19.29,14.986 L19.29,15 L5.032,15 L5.032,15 Z"></path>
        <path id="path-3" d="M5.032,15 C2.253,15 0,12.761 0,10 C0,7.239 2.253,5 5.032,5 L5.092,5 C5.498,2.173 7.945,0 10.903,0 C13.313,0 15.383,1.442 16.288,3.505 C17.273,2.869 18.448,2.5 19.71,2.5 C23.184,2.5 26,5.298 26,8.75 C26,12.202 23.184,15 19.71,15 C19.569,15 19.429,14.995 19.29,14.986 L19.29,15 L5.032,15 L5.032,15 Z"></path>
    </defs>
    <g id="colored" stroke="none" stroke-width="1" fill="none" fill-rule="evenodd" sketch:type="MSPage">
        <g id="Tech_sliced" sketch:type="MSLayerGroup" transform="translate(-600.000000, 0.000000)"></g>
        <g id="Imported-Layers" sketch:type="MSLayerGroup" transform="translate(-599.000000, 2.000000)">
            <g id="Group-105" transform="translate(604.000000, 8.000000)">
                <mask id="mask-2" sketch:name="Clip 104" fill="white">
                    <use xlink:href="#path-1"></use>
                </mask>
                <g id="Clip-104"></g>
                <path d="M0,0 L26,0 L26,15 L0,15 L0,0 Z" id="Fill-103" fill="#D8D8D8" sketch:type="MSShapeGroup" mask="url(#mask-2)"></path>
            </g>
            <path d="M623.71,24 C623.64,24 623.569,23.999 623.5,23.997 L623.29,24 L609.032,24 C605.706,24 603,21.309 603,18 C603,14.948 605.302,12.421 608.27,12.048 C609.068,9.119 611.787,7 614.903,7 C617.271,7 619.441,8.207 620.691,10.149 C621.634,9.722 622.66,9.5 623.71,9.5 C627.729,9.5 631,12.752 631,16.75 C631,20.553 628.039,23.682 624.29,23.977 L624.29,23.986 L624.12,23.989 C623.984,23.996 623.848,24 623.71,24 L623.71,24 Z M622.29,21.931 L623.356,21.989 C623.474,21.997 623.591,22 623.71,22 C626.627,22 629,19.645 629,16.75 C629,13.855 626.627,11.5 623.71,11.5 C622.683,11.5 621.687,11.792 620.831,12.345 L619.844,12.982 L619.372,11.907 C618.598,10.141 616.844,9 614.903,9 C612.494,9 610.421,10.781 610.082,13.143 L609.955,14.022 L609.066,14 C606.809,14 605,15.794 605,18 C605,20.206 606.809,22 609.032,22 L622.29,22 L622.29,21.931 L622.29,21.931 Z" id="Fill-106" fill="#535353" sketch:type="MSShapeGroup"></path>
            <g id="Group-109" transform="translate(630.000000, 33.000000)">
                <mask id="mask-4" sketch:name="Clip 108" fill="white">
                    <use xlink:href="#path-3"></use>
                </mask>
                <g id="Clip-108"></g>
                <path d="M0,0 L26,0 L26,15 L0,15 L0,0 Z" id="Fill-107" fill="#D8D8D8" sketch:type="MSShapeGroup" mask="url(#mask-4)"></path>
            </g>
            <path d="M649.71,49 C649.64,49 649.569,48.999 649.5,48.997 L649.29,49 L635.032,49 C631.706,49 629,46.309 629,43 C629,39.948 631.302,37.421 634.269,37.048 C635.068,34.119 637.787,32 640.903,32 C643.271,32 645.441,33.207 646.691,35.149 C647.634,34.722 648.66,34.5 649.71,34.5 C653.729,34.5 657,37.752 657,41.75 C657,45.553 654.039,48.682 650.29,48.977 L650.29,48.986 L650.12,48.989 C649.984,48.996 649.848,49 649.71,49 L649.71,49 Z M648.29,46.931 L649.356,46.989 C649.474,46.997 649.591,47 649.71,47 C652.627,47 655,44.645 655,41.75 C655,38.855 652.627,36.5 649.71,36.5 C648.683,36.5 647.687,36.792 646.831,37.345 L645.844,37.982 L645.372,36.907 C644.598,35.141 642.844,34 640.903,34 C638.494,34 636.421,35.781 636.082,38.143 L635.955,39.022 L635.066,39 C632.809,39 631,40.794 631,43 C631,45.206 632.809,47 635.032,47 L648.29,47 L648.29,46.931 L648.29,46.931 Z" id="Fill-110" fill="#535353" sketch:type="MSShapeGroup"></path>
            <path d="M633.5,16 L655.5,16 L655.5,18 L633.5,18 L633.5,16 Z" id="Fill-111" fill="#535353" sketch:type="MSShapeGroup"></path>
            <path d="M651,22.242 C650.744,22.242 650.488,22.145 650.293,21.949 C649.902,21.559 649.902,20.926 650.293,20.535 L653.828,17 L650.293,13.464 C649.902,13.073 649.902,12.44 650.293,12.05 C650.684,11.659 651.316,11.659 651.707,12.05 L655.949,16.292 C656.34,16.683 656.34,17.316 655.949,17.707 L651.707,21.949 C651.512,22.145 651.256,22.242 651,22.242" id="Fill-112" fill="#535353" sketch:type="MSShapeGroup"></path>
            <path d="M604.5,42 L626.5,42 L626.5,44 L604.5,44 L604.5,42 Z" id="Fill-113" fill="#535353" sketch:type="MSShapeGroup"></path>
            <path d="M609,48.242 C608.744,48.242 608.488,48.145 608.293,47.949 L604.051,43.707 C603.66,43.316 603.66,42.683 604.051,42.292 L608.293,38.05 C608.684,37.659 609.316,37.659 609.707,38.05 C610.098,38.44 610.098,39.073 609.707,39.464 L606.172,43 L609.707,46.535 C610.098,46.926 610.098,47.559 609.707,47.949 C609.512,48.145 609.256,48.242 609,48.242" id="Fill-114" fill="#535353" sketch:type="MSShapeGroup"></path>
        </g>
    </g>
</svg>